<?xml version="1.0" encoding="UTF-8"?>
<svg id="Capa_1" data-name="Capa 1" xmlns="http://www.w3.org/2000/svg" viewBox="0 0 127.56 114.88">
  <defs>
    <style>
      .cls-1 {
        fill: #00b0e1;
      }
    </style>
  </defs>
  <path class="cls-1" d="M106.47,83.3c-2.49,9.36-3.06,12.4-8.62,18.86-3.03,3.52-9.34,5.09-17.56,5.12-8.19-.03-13.99-1.71-17.4-5.03-4.53-4.65-6.12-9.87-8.61-19.23-3.89-15.26-7.85-30.79-12.52-50.16-1.32-5.45,3.01-10.4,7.56-9.38,1.47.33,2.93.96,3.92,1.85,1.66,1.49,2.24,4.33,3.51,9.47,1.86,7.53,3.5,14.33,5.8,23.33,2.35,9.17,4.56,17.78,6.64,25.85,1.08,4.13,2.45,6.94,4.11,8.43,1.66,1.49,4.32,2.67,7.32,2.58,3,.09,5.35-1.08,7-2.58,1.66-1.49,2.67-4.31,3.75-8.43,4.35-17.16,12.15-48.83,18.09-72.7.72-2.88-1.46-5.66-4.43-5.66H15.14c-4.9,0-8.91,4.01-8.91,8.91v55.04c0,3.22,4.58,3.83,5.43.72,4.02-14.84,8.09-29.87,10.29-38.41,2.49-9.36,5.35-15.78,8.61-19.23,3.25-3.32,8.99-5,17.21-5.03,8.19.03,13.99,1.71,17.4,5.03,3.25,3.46,6.12,9.87,8.61,19.23,3.89,15.26,7.86,31.47,12.78,50.78,1.15,4.52-2.59,9.03-7.26,8.92-1.83-.04-3.58-1.01-4.57-1.9-1.66-1.49-2.32-4.21-3.31-8.46-1.7-7.28-3.91-15.58-6.22-24.58-2.35-9.17-4.27-17.65-6.35-25.72-1.08-4.13-2.45-6.94-4.11-8.43-1.66-1.49-3.78-2.56-6.77-2.47-3-.09-5.62.89-7.19,2.47-2.84,2.86-3.03,4.3-4.11,8.43-4.31,16.99-12.24,48.74-18.26,72.69-.72,2.88,1.45,5.67,4.42,5.67h89.59c4.9,0,8.91-4.01,8.91-8.91v-54.28c0-3.26-4.66-3.83-5.44-.66-3.62,14.72-7.26,29.51-9.42,37.88Z"/>
</svg>