<svg id="Capa_1" data-name="Capa 1" xmlns="http://www.w3.org/2000/svg" viewBox="0 0 425.2 108.38">
    <defs>
        <style>
            .cls-1{fill:#fff}
        </style>
    </defs>
    <path class="cls-1" d="M163.74 89.73c0 1.83-.48 2.31-2.31 2.31h-.48c-1.83 0-2.31-.48-2.31-2.31V61.41c0-11.65 6.45-17.43 19.36-17.43 13.87 0 19.36 6.26 19.36 17.43v28.32c0 1.83-.48 2.31-2.31 2.31h-.48c-1.83 0-2.31-.48-2.31-2.31V61.41c0-8.48-3.47-12.62-14.25-12.62s-14.25 4.14-14.25 12.62v28.32ZM246.75 77.18c-1.46 5.87-3.16 9.91-5.07 11.86-1.92 1.96-4.85 3-9.02 3s-7.1-1.04-9.02-3-3.61-5.99-5.07-11.86L203.7 18.9c-.56-1.96-.11-2.65 2.03-2.65h1.01c2.14 0 2.82.46 3.38 2.65l15.21 60.01c1.46 5.87 3.38 8.58 7.33 8.58s5.97-2.7 7.33-8.58l15.33-60.01c.56-2.19 1.24-2.65 3.38-2.65h1.01c2.14 0 2.59.69 2.03 2.65l-14.99 58.28ZM298.61 77.21c0 10.74-5.99 14.92-19.58 14.92-9.51 0-16.73-4.28-16.73-13.88s6.18-13.59 19.39-13.59h11.88V58.1c0-7.13-4.66-9.69-13.4-9.69-4.47 0-8.27.48-11.41 1.33-1.62.47-2.09.09-2.09-1.71v-.66c0-1.62.47-2.09 2.09-2.47 2.95-.66 6.65-1.04 11.12-1.04 12.45 0 18.72 4.75 18.72 14.26v19.1Zm-5.04-8.36h-11.69c-10.17 0-14.54 2.47-14.54 9.41 0 6.18 3.9 9.31 11.69 9.31 10.17 0 14.54-2.28 14.54-10.55v-8.17ZM310.02 27.03c0-1.81.47-2.28 2.28-2.28h.47c1.81 0 2.28.48 2.28 2.28V79.4c0 5.04 1.71 7.51 5.13 7.51h1.14c1.81 0 2.19.28 2.19 1.9v.38c0 1.62-.38 2.09-2.19 2.38-.38.09-.86.09-1.52.09-5.8 0-9.79-3.42-9.79-11.69V27.03ZM335.02 74.93c0 8.36 3.42 12.45 14.07 12.45s14.07-4.09 14.07-12.45V46.99c0-1.81.48-2.28 2.28-2.28h.47c1.81 0 2.28.47 2.28 2.28v27.94c0 11.03-5.42 17.2-19.1 17.2-12.74 0-19.1-5.7-19.1-17.2V46.99c0-1.81.48-2.28 2.28-2.28h.47c1.81 0 2.28.47 2.28 2.28v27.94ZM413.16 67.71c-.29 1.81-.67 2.28-2.47 2.28h-30.41v3.33c0 10.26 4.56 14.07 15.68 14.07 5.04 0 9.6-.67 13.78-2.09 1.52-.48 2.09-.1 2.09 1.71v.57c0 1.61-.28 1.81-2.09 2.47-3.9 1.43-8.46 2.09-13.69 2.09-14.16 0-20.82-5.7-20.82-19.48v-9.31c0-13.02 6.46-19.48 19.29-19.48 12.07 0 18.91 6.18 18.91 18.34 0 2-.1 3.8-.28 5.51m-32.87-2.2h28.32v-3.8c0-8.84-4.75-13.31-14.16-13.31s-14.16 4.47-14.16 13.31v3.8Z"/>
    <path d="M106.26 78.64c-2.35 8.85-2.89 11.73-8.15 17.83-2.87 3.33-8.83 4.81-16.6 4.84-7.74-.03-13.23-1.62-16.45-4.76-4.28-4.4-5.79-9.33-8.14-18.18-3.67-14.43-7.42-29.11-11.84-47.42-1.24-5.16 2.84-9.83 7.15-8.87 1.39.31 2.77.91 3.71 1.75 1.57 1.41 2.12 4.09 3.32 8.95 1.75 7.12 3.31 13.55 5.49 22.05 2.22 8.67 4.31 16.81 6.27 24.44 1.02 3.9 2.32 6.56 3.89 7.97 1.57 1.41 4.08 2.52 6.92 2.44 2.83.08 5.05-1.02 6.62-2.44 1.57-1.41 2.52-4.07 3.55-7.97 4.12-16.22 11.49-46.17 17.1-68.73.68-2.72-1.38-5.35-4.19-5.35h-85c-4.63 0-8.42 3.79-8.42 8.42v52.04c0 3.05 4.33 3.62 5.13.68 3.8-14.03 7.65-28.24 9.73-36.31 2.35-8.85 5.06-14.91 8.14-18.18 3.07-3.14 8.5-4.72 16.27-4.75 7.74.03 13.23 1.62 16.45 4.75 3.07 3.27 5.79 9.33 8.14 18.18 3.67 14.43 7.44 29.75 12.08 48.01 1.09 4.28-2.45 8.54-6.86 8.44-1.73-.04-3.38-.95-4.32-1.79-1.57-1.41-2.19-3.98-3.13-8-1.61-6.89-3.7-14.73-5.88-23.24-2.22-8.67-4.04-16.69-6-24.32-1.02-3.9-2.32-6.56-3.89-7.97-1.57-1.41-3.57-2.42-6.4-2.33-2.83-.08-5.31.84-6.8 2.33-2.68 2.7-2.86 4.07-3.89 7.97C36.18 45.18 28.69 75.2 23 97.84c-.68 2.72 1.38 5.36 4.18 5.36h84.7c4.63 0 8.42-3.79 8.42-8.42V43.46c0-3.08-4.41-3.62-5.15-.62-3.42 13.91-6.86 27.9-8.9 35.81Z" style="fill:#00b0e1"/>
</svg>
