<?xml version="1.0" encoding="UTF-8"?>
<svg id="Capa_1" data-name="Capa 1" xmlns="http://www.w3.org/2000/svg" viewBox="0 0 240.94 99.21">
  <defs>
    <style>
      .cls-1 {
        letter-spacing: -.02em;
      }

      .cls-2 {
        letter-spacing: -.08em;
      }

      .cls-3 {
        fill: #2e2e2e;
      }

      .cls-4 {
        fill: #1797d5;
        font-family: AmpleSoftPro-Medium, 'AmpleSoft Pro';
        font-size: 17.65px;
        font-weight: 500;
      }

      .cls-5 {
        letter-spacing: 0em;
      }

      .cls-6 {
        letter-spacing: 0em;
      }

      .cls-7 {
        letter-spacing: -.02em;
      }
    </style>
  </defs>
  <g>
    <path class="cls-3" d="M8.82,68.8c0,1.67-.44,2.11-2.11,2.11h-.44c-1.67,0-2.11-.44-2.11-2.11v-25.85c0-10.64,5.89-15.91,17.67-15.91,12.66,0,17.67,5.71,17.67,15.91v25.85c0,1.67-.44,2.11-2.11,2.11h-.44c-1.67,0-2.11-.44-2.11-2.11v-25.85c0-7.74-3.17-11.52-13.01-11.52s-13.01,3.78-13.01,11.52v25.85Z"/>
    <path class="cls-3" d="M84.59,57.34c-1.34,5.36-2.88,9.04-4.63,10.83-1.75,1.79-4.42,2.73-8.23,2.73s-6.48-.95-8.23-2.73c-1.75-1.79-3.29-5.47-4.63-10.83L45.29,4.13c-.51-1.79-.1-2.42,1.85-2.42h.93c1.95,0,2.57.42,3.09,2.42l13.89,54.79c1.34,5.36,3.09,7.83,6.69,7.83s5.45-2.47,6.69-7.83l13.99-54.79c.51-2,1.13-2.42,3.09-2.42h.93c1.95,0,2.37.63,1.85,2.42l-13.68,53.21Z"/>
    <path class="cls-3" d="M131.95,57.37c0,9.8-5.47,13.62-17.87,13.62-8.68,0-15.27-3.9-15.27-12.67s5.64-12.41,17.7-12.41h10.85v-5.99c0-6.51-4.25-8.85-12.23-8.85-4.08,0-7.55.43-10.41,1.21-1.48.43-1.91.09-1.91-1.56v-.61c0-1.47.43-1.91,1.91-2.26,2.69-.61,6.07-.95,10.15-.95,11.37,0,17.09,4.34,17.09,13.02v17.44ZM127.35,49.74h-10.67c-9.28,0-13.28,2.26-13.28,8.59,0,5.64,3.56,8.5,10.67,8.5,9.28,0,13.27-2.08,13.27-9.63v-7.46Z"/>
    <path class="cls-3" d="M142.36,11.56c0-1.65.43-2.08,2.08-2.08h.43c1.65,0,2.08.43,2.08,2.08v47.81c0,4.6,1.56,6.85,4.68,6.85h1.04c1.65,0,2,.26,2,1.74v.35c0,1.48-.35,1.91-2,2.17-.35.09-.78.09-1.39.09-5.29,0-8.94-3.12-8.94-10.67V11.56Z"/>
    <path class="cls-3" d="M165.18,55.29c0,7.64,3.12,11.37,12.84,11.37s12.84-3.73,12.84-11.37v-25.51c0-1.65.43-2.08,2.08-2.08h.43c1.65,0,2.08.43,2.08,2.08v25.51c0,10.07-4.95,15.71-17.44,15.71-11.63,0-17.44-5.21-17.44-15.71v-25.51c0-1.65.43-2.08,2.08-2.08h.43c1.65,0,2.08.43,2.08,2.08v25.51Z"/>
    <path class="cls-3" d="M236.52,48.69c-.26,1.65-.61,2.08-2.26,2.08h-27.77v3.04c0,9.37,4.17,12.84,14.32,12.84,4.6,0,8.76-.61,12.58-1.91,1.39-.43,1.91-.09,1.91,1.56v.52c0,1.47-.26,1.65-1.91,2.26-3.56,1.3-7.72,1.91-12.49,1.91-12.93,0-19-5.21-19-17.79v-8.5c0-11.89,5.9-17.79,17.61-17.79,11.02,0,17.27,5.64,17.27,16.75,0,1.82-.09,3.47-.26,5.03M206.5,46.7h25.86v-3.47c0-8.07-4.34-12.15-12.93-12.15s-12.93,4.08-12.93,12.15v3.47Z"/>
  </g>
  <text class="cls-4" transform="translate(26.16 91.86)"><tspan class="cls-2" x="0" y="0">Y</tspan><tspan class="cls-6" x="9.69" y="0">ou d</tspan><tspan class="cls-1" x="42.89" y="0">r</tspan><tspan class="cls-5" x="48.19" y="0">eam it, </tspan><tspan class="cls-7" x="104.44" y="0">w</tspan><tspan x="118.74" y="0">e code it.</tspan></text>
</svg>